<?xml version="1.0" encoding="utf-8"?>
<svg viewBox="0 0 294 310" xmlns="http://www.w3.org/2000/svg">
  <defs>
    <style type="text/css">
   
    .fil0 {fill:black}
   
  </style>
  </defs>
  <g>
    <path class="fil0" d="M165 93l0 -41c-20,15 -53,22 -85,21 -31,0 -61,-7 -80,-21l0 41c0,18 40,30 81,30 42,0 84,-11 84,-30zm-27 60c26,-26 68,-26 95,0 23,23 25,60 7,86l51 51c4,4 4,12 0,16 -5,5 -12,5 -17,0l-51 -50c-26,18 -62,15 -85,-8 -27,-26 -27,-69 0,-95zm26 69c6,7 -4,17 -11,10 -17,-17 -17,-46 0,-63 7,-7 17,3 11,10 -2,1 -3,3 -5,5 -7,11 -6,26 3,37 1,0 1,1 2,1zm-16 -59c20,-21 54,-21 75,0 20,21 20,54 0,75 -21,21 -55,21 -75,0 -21,-21 -21,-54 0,-75zm17 116l0 -1c-13,-3 -26,-10 -37,-21 0,0 -1,-1 -2,-2 -14,4 -30,5 -46,5 -31,0 -61,-7 -80,-21l0 40c0,19 40,31 81,31 42,0 84,-11 84,-31zm-60 -82c-8,1 -17,1 -25,1 -31,-1 -61,-8 -80,-21 0,13 0,27 0,40 0,19 40,30 81,30 13,1 25,0 37,-2 -10,-15 -14,-32 -13,-48zm60 -75l0 -7c-20,14 -53,21 -85,21 -31,-1 -61,-8 -80,-21 0,13 0,26 0,40 0,19 40,30 81,30 9,0 17,0 25,-1 3,-15 11,-29 22,-40 11,-11 24,-18 37,-22zm-82 -61c46,-1 82,-14 82,-30 0,-17 -36,-30 -82,-31 -46,1 -83,14 -83,31 0,16 37,29 83,30z"/>
  </g>
</svg>