<?xml version="1.0" encoding="utf-8"?>
<svg viewBox="-32.155 65.733 475.8 493.1" xmlns="http://www.w3.org/2000/svg">
  <g transform="matrix(1, 0, 0, 1, -50.254669, 56.333363)">
    <path d="M193.2,205.5c-3.8-2.2-8.7-0.9-10.9,2.9c-2.2,3.8-0.9,8.7,2.9,10.9l75.5,43.6c0,0,0,0,0,0c0.3,0.2,0.6,0.3,0.9,0.4   c0.1,0,0.2,0.1,0.2,0.1c0.2,0.1,0.4,0.2,0.7,0.2c0.1,0,0.2,0.1,0.3,0.1c0.2,0,0.4,0.1,0.6,0.1c0.1,0,0.2,0,0.3,0.1   c0.3,0,0.5,0,0.8,0.1c0,0,0.1,0,0.1,0c0,0,0,0,0,0c0.3,0,0.6,0,0.9-0.1c0.1,0,0.1,0,0.2,0c0.3,0,0.6-0.1,0.8-0.2c0,0,0,0,0.1,0   c0.3-0.1,0.6-0.2,0.9-0.3c0.1,0,0.1,0,0.2-0.1c0.2-0.1,0.5-0.2,0.7-0.3c0.1,0,0.1-0.1,0.2-0.1c0.3-0.2,0.5-0.3,0.8-0.5   c0.1,0,0.1-0.1,0.2-0.1c0.1-0.1,0.3-0.2,0.4-0.3l88.8-79.7l51.8,1.3c2.5,0.1,4.9-1,6.4-3l34-42.3v13.8c0,4.4,3.6,8,8,8s8-3.6,8-8   v-31.8c0-4.4-3.6-8-8-8h-32.2c-4.4,0-8,3.6-8,8s3.6,8,8,8h11.7l-31.5,39.2l-51-1.2c-2.1-0.1-4,0.7-5.5,2l-86.8,77.9L193.2,205.5z" style="fill: rgb(28, 191, 255);"/>
    <path d="M116,256c0-4.4-3.6-8-8-8H76.9c-4.4,0-8,3.6-8,8s3.6,8,8,8H108C112.4,264,116,260.4,116,256z" style="fill: rgb(28, 191, 255);"/>
    <path d="M133,170.7l-27-15.5c-3.8-2.2-8.7-0.9-10.9,2.9s-0.9,8.7,2.9,10.9l27,15.5c1.3,0.7,2.6,1.1,4,1.1c2.8,0,5.5-1.4,6.9-4   C138.1,177.8,136.8,172.9,133,170.7z" style="fill: rgb(28, 191, 255);"/>
    <path d="M179.4,124.3c1.5,2.6,4.2,4,6.9,4c1.4,0,2.7-0.3,4-1.1c3.8-2.2,5.1-7.1,2.9-10.9l-15.5-26.9c-2.2-3.8-7.1-5.1-10.9-2.9   c-3.8,2.2-5.1,7.1-2.9,10.9L179.4,124.3z" style="fill: rgb(28, 191, 255);"/>
    <path d="M166.8,425.5c1.3,0.7,2.6,1.1,4,1.1c2.8,0,5.5-1.4,6.9-4l15.5-26.9c2.2-3.8,0.9-8.7-2.9-10.9c-3.8-2.2-8.7-0.9-10.9,2.9   l-15.5,26.9C161.7,418.4,163,423.3,166.8,425.5z" style="fill: rgb(28, 191, 255);"/>
    <path d="M102.1,357.9c1.4,0,2.7-0.3,4-1.1l27-15.6c3.8-2.2,5.1-7.1,2.9-10.9c-2.2-3.8-7.1-5.1-10.9-2.9L98,343   c-3.8,2.2-5.1,7.1-2.9,10.9C96.6,356.5,99.3,357.9,102.1,357.9z" style="fill: rgb(28, 191, 255);"/>
    <path d="M264.7,486.6C137.5,486.6,34.1,383.1,34.1,256c0-127.1,103.4-230.6,230.6-230.6c4.4,0,8-3.6,8-8s-3.6-8-8-8   c-65.9,0-127.8,25.6-174.3,72.2C43.8,128.2,18.1,190.1,18.1,256c0,65.9,25.6,127.8,72.2,174.3c46.6,46.6,108.5,72.2,174.3,72.2   c4.4,0,8-3.6,8-8S269.1,486.6,264.7,486.6z" style="fill: rgb(28, 191, 255);"/>
    <path d="M256.7,412.3v31.1c0,4.4,3.6,8,8,8s8-3.6,8-8v-31.1c0-4.4-3.6-8-8-8S256.7,407.8,256.7,412.3z" style="fill: rgb(28, 191, 255);"/>
    <path d="M485.9,454h-22.2V195.7c0-4.4-3.6-8-8-8s-8,3.6-8,8V454h-28.9V256.8c0-4.4-3.6-8-8-8s-8,3.6-8,8V454h-31.6V274.7   c0-4.4-3.6-8-8-8s-8,3.6-8,8V454h-28.9V353.7c0-4.4-3.6-8-8-8s-8,3.6-8,8V454h-45.6c-109.2,0-198-88.8-198-198   c0-109.2,88.8-198,198-198c4.4,0,8-3.6,8-8s-3.6-8-8-8c-57.2,0-110.9,22.3-151.3,62.7S50.7,198.8,50.7,256   c0,57.2,22.3,110.9,62.7,151.3c40.4,40.4,94.2,62.7,151.3,62.7h221.2c4.4,0,8-3.6,8-8S490.3,454,485.9,454z" style="fill: rgb(28, 191, 255);"/>
    <path d="M272.7,98.8V67.7c0-4.4-3.6-8-8-8s-8,3.6-8,8v31.1c0,4.4,3.6,8,8,8S272.7,103.2,272.7,98.8z" style="fill: rgb(28, 191, 255);"/>
  </g>
</svg>